<svg width="25" height="30" viewBox="0 0 25 30" xmlns="http://www.w3.org/2000/svg">
    <g fill="#FFF" fill-rule="nonzero">
        <path d="M8.16 30C3.694 29.974 0 20.86 0 16.218c0-7.582 5.688-9.242 7.88-9.242.988 0 2.043.388 2.974.731.65.24 1.323.487 1.697.487.224 0 .752-.21 1.218-.395.994-.396 2.231-.887 3.671-.887h.009c1.075 0 4.336.236 6.296 3.18l.46.69-.661.498c-.945.713-2.667 2.012-2.667 4.586 0 3.049 1.95 4.221 2.888 4.785.414.25.842.506.842 1.067 0 .367-2.925 8.237-7.173 8.237-1.04 0-1.774-.313-2.422-.588-.656-.28-1.221-.52-2.156-.52-.474 0-1.073.224-1.707.462-.867.324-1.848.691-2.961.691h-.03zM17.891 0c.11 3.989-2.742 6.756-5.591 6.583C11.83 3.399 15.149 0 17.89 0z"/>
    </g>
</svg>
