<svg width="40" height="40" xmlns="http://www.w3.org/2000/svg">
    <g fill="none" fill-rule="evenodd">
        <path d="M0 0h40v40H0z"/>
        <g transform="translate(5 5)">
            <rect stroke="#14C1C2" stroke-width="1.5" x=".75" y=".75" width="28.5" height="28.5" rx="4"/>
            <g fill="#E7F8F8" fill-rule="nonzero" stroke="#00C4C4">
                <path d="M15 6.5c1.186 0 2.26.482 3.039 1.261A4.286 4.286 0 0 1 19.3 10.8c0 1.186-.482 2.26-1.261 3.039A4.286 4.286 0 0 1 15 15.1a4.286 4.286 0 0 1-3.039-1.261A4.286 4.286 0 0 1 10.7 10.8c0-1.186.482-2.26 1.261-3.039A4.286 4.286 0 0 1 15 6.5zM16.067 17.167c1.715 0 3.33.682 4.549 1.92a6.498 6.498 0 0 1 1.866 4.102l-14.54.501c-.324-1.98.32-3.463 1.442-4.603a6.346 6.346 0 0 1 4.55-1.92z"/>
            </g>
        </g>
    </g>
</svg>
