<svg width="50" height="50" viewBox="0 0 50 50" xmlns="http://www.w3.org/2000/svg" xmlns:xlink="http://www.w3.org/1999/xlink">
    <defs>
        <filter x="-22.5%" y="-15%" width="145%" height="145%" filterUnits="objectBoundingBox" id="a">
            <feOffset dy="3" in="SourceAlpha" result="shadowOffsetOuter1"/>
            <feGaussianBlur stdDeviation="2.5" in="shadowOffsetOuter1" result="shadowBlurOuter1"/>
            <feColorMatrix values="0 0 0 0 0.321568627 0 0 0 0 0.592156863 0 0 0 0 0.603921569 0 0 0 0.2 0" in="shadowBlurOuter1"/>
        </filter>
        <rect id="b" x="0" y="0" width="40" height="40" rx="20"/>
    </defs>
    <g fill="none" fill-rule="evenodd">
        <g transform="translate(5 2)">
            <use fill="#000" filter="url(#a)" xlink:href="#b"/>
            <use fill="#FFF" xlink:href="#b"/>
        </g>
        <g transform="translate(12 13)">
            <g fill="#E7F8F8" fill-rule="nonzero" stroke="#00C4C4" stroke-width="1.3">
                <path d="M8.565 4.32c.63 0 1.202.257 1.616.671a2.28 2.28 0 0 1 0 3.232 2.28 2.28 0 0 1-3.232 0 2.28 2.28 0 0 1 0-3.232 2.28 2.28 0 0 1 1.616-.67zM9.217 10.846a3.54 3.54 0 0 1 2.538 1.072c.53.538.874 1.21 1 1.937l-8.204.283c-.072-.935.266-1.655.823-2.22a3.54 3.54 0 0 1 2.538-1.072z"/>
            </g>
            <rect stroke="#14C1C2" stroke-width="1.3" x=".65" y=".65" width="24.7" height="17.053" rx="4"/>
            <rect stroke="#14C1C2" fill="#D8D8D8" x="15.794" y="6.006" width="6.341" height="1" rx=".5"/>
            <rect stroke="#14C1C2" fill="#D8D8D8" x="15.794" y="9.065" width="6.341" height="1" rx=".5"/>
            <rect stroke="#14C1C2" fill="#D8D8D8" x="15.794" y="12.124" width="2.671" height="1" rx=".5"/>
        </g>
    </g>
</svg>
