<svg width="22" height="30" viewBox="0 0 22 30" xmlns="http://www.w3.org/2000/svg">
    <g fill="#424242" fill-rule="nonzero" stroke="#424242" stroke-width=".3">
        <path d="M11.349 5.246a6.11 6.11 0 0 0-6.103 6.103 6.11 6.11 0 0 0 6.103 6.103 6.11 6.11 0 0 0 6.103-6.103 6.11 6.11 0 0 0-6.103-6.103zm0 10.564a4.467 4.467 0 0 1-4.462-4.461 4.466 4.466 0 0 1 4.462-4.461 4.467 4.467 0 0 1 4.462 4.461 4.466 4.466 0 0 1-4.462 4.461z"/>
        <path d="M11.349 1C5.643 1 1 5.643 1 11.349c0 3.291 2.76 8.194 4.405 10.824 1.083 1.73 2.246 3.376 3.275 4.636C10.333 28.831 10.925 29 11.35 29c.43 0 .989-.17 2.636-2.192 1.032-1.267 2.196-2.913 3.277-4.634 1.656-2.636 4.435-7.548 4.435-10.825C21.698 5.643 17.056 1 11.35 1zm4.776 19.896c-2.123 3.445-4.071 5.774-4.786 6.368-.718-.576-2.635-2.849-4.787-6.357-2.485-4.051-3.91-7.535-3.91-9.558 0-4.801 3.906-8.707 8.707-8.707s8.707 3.906 8.707 8.707c0 2.012-1.432 5.491-3.931 9.547z"/>
    </g>
</svg>
