<svg width="40" height="40" xmlns="http://www.w3.org/2000/svg">
    <g fill="none" fill-rule="evenodd">
        <path d="M0 0h40v40H0z"/>
        <g fill-rule="nonzero">
            <path d="M28.685 25.834 23.4 23.846l3.545-5.701c1.673-2.691 1.753-5.952.214-8.721C25.619 6.654 22.809 5 19.639 5c-3.168 0-5.98 1.654-7.519 4.424-1.539 2.77-1.46 6.03.214 8.72l3.545 5.702-3.912 1.472-7.571 2.847a.611.611 0 0 0 0 1.144l15.028 5.652a.61.61 0 0 0 .43 0l11.641-4.389c.316-.119-.096-.287-.214-.603-.12-.316.096-.642-.22-.523l-11.421 4.29-13.294-5c2.014-.756 4.043-1.52 6.051-2.275l4.14-1.557 2.584 4.156a.61.61 0 0 0 1.037 0l2.584-4.156 5.513 2.073 4.678 1.76-1.87.703a.611.611 0 0 0 .43 1.143l3.39-1.274a.61.61 0 0 0 0-1.144l-6.198-2.331zM19.64 27.58 13.372 17.5c-1.436-2.31-1.504-5.106-.184-7.483 1.321-2.376 3.733-3.795 6.452-3.795 2.718 0 5.13 1.419 6.45 3.795 1.322 2.377 1.253 5.174-.183 7.483L19.64 27.58z" fill="#14C1C2"/>
            <path d="M19.64 9.002a4.618 4.618 0 0 0-4.613 4.613 4.618 4.618 0 0 0 4.613 4.613 4.618 4.618 0 0 0 4.613-4.613 4.618 4.618 0 0 0-4.613-4.613z" fill="#14C1C2"/>
            <path d="M19.64 17.006a3.395 3.395 0 0 1-3.355-3.885 9.49 9.49 0 0 1 3.264.58c1.091.399 2.08.984 2.945 1.741a3.39 3.39 0 0 1-2.854 1.564zM22.97 14.247a10.523 10.523 0 0 0-3.001-1.694 10.692 10.692 0 0 0-3.258-.645 3.392 3.392 0 0 1 2.929-1.684 3.395 3.395 0 0 1 3.33 4.023z" fill="#E7F8F8"/>
        </g>
    </g>
</svg>
