<svg width="40" height="40" xmlns="http://www.w3.org/2000/svg">
    <g fill="none" fill-rule="evenodd">
        <path d="M0 0h40v40H0z"/>
        <g fill-rule="nonzero">
            <path d="M28.627 35H10.019A4.023 4.023 0 0 1 6 30.981V14.682c0-.203.165-.368.368-.368h26.588c.203 0 .368.165.368.368v15.621A4.702 4.702 0 0 1 28.627 35zM6.736 15.05v15.931a3.287 3.287 0 0 0 3.283 3.283h18.608a3.966 3.966 0 0 0 3.961-3.96V15.05H6.736z" fill="#00C4C4" stroke="#00C8C6" stroke-width=".5"/>
            <path d="M24.687 26.703h-10.05V24.02c0-.417.337-.754.753-.754h8.543c.417 0 .754.337.754.754v2.683z" fill="#E7F8F8"/>
            <path d="M24.687 27.07h-10.05a.368.368 0 0 1-.369-.367V24.02c0-.619.504-1.122 1.122-1.122h8.543c.619 0 1.122.503 1.122 1.122v2.683a.368.368 0 0 1-.368.367zm-9.683-.735h9.316V24.02a.387.387 0 0 0-.387-.387h-8.542a.387.387 0 0 0-.387.387v2.315z" fill="#14C1C2"/>
            <path d="M24.687 30.507h-10.05a.368.368 0 0 1-.369-.368v-3.436c0-.204.165-.368.368-.368h10.051c.204 0 .368.164.368.368v3.436a.368.368 0 0 1-.368.368zm-9.683-.735h9.316V27.07h-9.316v2.702z" fill="#14C1C2"/>
            <g fill="#14C1C2">
                <path d="M25.429 30.507H13.895a.368.368 0 0 1 0-.735H25.43a.368.368 0 0 1 0 .735zM23.148 23.633a.368.368 0 0 1-.368-.367v-2.187a.368.368 0 0 1 .736 0v2.187a.368.368 0 0 1-.368.367zM23.148 20.153a.368.368 0 0 1-.368-.367v-.404a.368.368 0 0 1 .736 0v.404a.368.368 0 0 1-.368.367zM19.662 23.633a.368.368 0 0 1-.368-.367v-2.762a.368.368 0 0 1 .736 0v2.762a.368.368 0 0 1-.368.367zM19.662 19.58a.368.368 0 0 1-.368-.369v-.404a.368.368 0 0 1 .736 0v.404a.368.368 0 0 1-.368.368zM16.176 23.633a.368.368 0 0 1-.368-.367v-2.187a.368.368 0 0 1 .736 0v2.187a.368.368 0 0 1-.368.367zM16.176 20.153a.368.368 0 0 1-.368-.367v-.404a.368.368 0 0 1 .736 0v.404a.368.368 0 0 1-.368.367z"/>
            </g>
            <g>
                <path d="M29.305 8.044H10.019a3.651 3.651 0 0 0-3.651 3.651v2.987h26.588v-2.987a3.651 3.651 0 0 0-3.651-3.65z" fill="#E7F8F8"/>
                <path d="M32.956 15.05H6.368A.368.368 0 0 1 6 14.682v-2.987a4.023 4.023 0 0 1 4.019-4.019h19.286a4.023 4.023 0 0 1 4.019 4.02v2.986a.368.368 0 0 1-.368.368zm-26.22-.736h25.852v-2.619a3.287 3.287 0 0 0-3.283-3.283H10.019a3.287 3.287 0 0 0-3.283 3.283v2.62z" stroke="#00C8C6" stroke-width=".5" fill="#00C4C4"/>
            </g>
            <g>
                <path d="M11.977 10.377a1.111 1.111 0 0 1-1.112-1.112V6.48a1.111 1.111 0 1 1 2.223 0v2.786c0 .614-.497 1.112-1.111 1.112z" fill="#FFF"/>
                <path d="M11.977 10.745a1.48 1.48 0 0 1-1.48-1.48V6.48c0-.815.664-1.479 1.48-1.479.815 0 1.479.664 1.479 1.48v2.785a1.48 1.48 0 0 1-1.48 1.48zm0-5.01a.744.744 0 0 0-.744.744v2.786a.744.744 0 0 0 1.487 0V6.48a.744.744 0 0 0-.743-.743z" stroke="#00C8C6" stroke-width=".5" fill="#00C4C4"/>
                <g>
                    <path d="M27.347 10.377a1.111 1.111 0 0 1-1.111-1.112V6.48a1.111 1.111 0 1 1 2.222 0v2.786c0 .614-.497 1.112-1.111 1.112z" fill="#FFF"/>
                    <path d="M27.347 10.745a1.48 1.48 0 0 1-1.48-1.48V6.48c0-.815.664-1.479 1.48-1.479s1.48.664 1.48 1.48v2.785a1.48 1.48 0 0 1-1.48 1.48zm0-5.01a.744.744 0 0 0-.744.744v2.786a.744.744 0 0 0 1.488 0V6.48a.744.744 0 0 0-.744-.743z" stroke="#00C8C6" stroke-width=".5" fill="#00C4C4"/>
                </g>
            </g>
        </g>
    </g>
</svg>
