<svg width="40" height="40" xmlns="http://www.w3.org/2000/svg">
    <g fill="none" fill-rule="evenodd">
        <path d="M0 0h40v40H0z"/>
        <g transform="translate(3 8)">
            <g fill="#E7F8F8" fill-rule="nonzero" stroke="#00C4C4" stroke-width="1.5">
                <path d="M11.2 5.55a3.08 3.08 0 0 1 2.184.906 3.08 3.08 0 0 1 0 4.368 3.08 3.08 0 0 1-4.368 0 3.08 3.08 0 0 1 0-4.368A3.08 3.08 0 0 1 11.2 5.55zM12.053 14.083a4.73 4.73 0 0 1 3.39 1.432 4.855 4.855 0 0 1 1.354 2.7L5.86 18.59c-.129-1.302.33-2.298 1.097-3.076a4.73 4.73 0 0 1 3.39-1.432z"/>
            </g>
            <rect stroke="#14C1C2" stroke-width="1.5" x=".75" y=".75" width="32.5" height="22.5" rx="4"/>
            <rect stroke="#14C1C2" fill="#D8D8D8" x="20.5" y="7.7" width="8.6" height="1" rx=".5"/>
            <rect stroke="#14C1C2" fill="#D8D8D8" x="20.5" y="11.7" width="8.6" height="1" rx=".5"/>
            <rect stroke="#14C1C2" fill="#D8D8D8" x="20.5" y="15.7" width="3.8" height="1" rx=".5"/>
        </g>
    </g>
</svg>
