<svg width="40" height="40" xmlns="http://www.w3.org/2000/svg">
    <g fill="none" fill-rule="evenodd">
        <path d="M0 0h40v40H0z"/>
        <path d="M33.493 5h-3.5v1h2.293l-3.009 3.009a7.983 7.983 0 0 0-13.1 4.3 7.993 7.993 0 1 0-2.684 15.665V31.5h-2.5v1h2.5V35h1v-2.5h2.5v-1h-2.5v-2.526a8.008 8.008 0 0 0 7.317-6.285 7.986 7.986 0 0 0 8.174-12.973l3.009-3.009V9h1V5.5a.5.5 0 0 0-.5-.5zm-19.5 23a7 7 0 1 1 2.036-13.696c-.02.23-.036.461-.036.696a8.012 8.012 0 0 0 4.865 7.359A7.01 7.01 0 0 1 13.993 28zm6.985-6.692A7 7 0 0 1 16.993 15c0-.104.011-.205.016-.307A7 7 0 0 1 20.993 21c0 .104-.01.205-.015.308zm3.015.692c-.69 0-1.376-.102-2.035-.304.02-.23.035-.461.035-.696a8.012 8.012 0 0 0-4.865-7.359A7 7 0 1 1 23.993 22z" fill="#14C1C2" fill-rule="nonzero" stroke="#00C4C4" stroke-width=".3"/>
    </g>
</svg>
