<svg width="100" height="100" xmlns="http://www.w3.org/2000/svg">
    <g fill-rule="nonzero" fill="none">
        <path d="M95.502 29.642 81.8 25.572 14.24 75.85l-.228.855a6.07 6.07 0 0 0 4.29 7.433L76.71 99.793a6.067 6.067 0 0 0 7.43-4.29l15.65-58.429a6.069 6.069 0 0 0-4.29-7.432z" fill="#FFD3D3"/>
        <path d="M95.502 29.642 81.8 25.572l-1.272.946a6.461 6.461 0 0 1-.076.288L61.742 90.41c-.583 1.981-2.095 3.51-3.994 4.3l18.963 5.083a6.067 6.067 0 0 0 7.43-4.291l15.65-58.428a6.069 6.069 0 0 0-4.29-7.432z" fill="#FFB6B7"/>
        <path d="M71.86 75.85H13.44a5.979 5.979 0 0 1-5.977-5.98L7.43 5.98A5.979 5.979 0 0 1 13.409 0h58.419a5.979 5.979 0 0 1 5.978 5.98l.032 63.89a5.979 5.979 0 0 1-5.978 5.98z" fill="#B8ECEC"/>
        <path d="M75.702 0H59.85a6.068 6.068 0 0 1 6.066 6.069l.033 63.712a6.068 6.068 0 0 1-6.067 6.069h15.852A6.068 6.068 0 0 0 81.8 69.78L81.769 6.07A6.068 6.068 0 0 0 75.702 0z" fill="#76DADB"/>
        <path d="M16.942 24.331h-9.61C3.289 24.331 0 21.041 0 16.997s3.29-7.334 7.332-7.334h.099v2.973h-.1a4.365 4.365 0 0 0-4.359 4.361 4.365 4.365 0 0 0 4.36 4.36h9.61a4.365 4.365 0 0 0 4.36-4.36 4.365 4.365 0 0 0-4.36-4.36h-2.543a1.486 1.486 0 0 1 0-2.974h2.543c4.043 0 7.332 3.29 7.332 7.334s-3.29 7.334-7.332 7.334z" fill="#FFB6B7"/>
        <g fill="#52979A">
            <path d="M61.553 46.102H27.71a1.486 1.486 0 0 1 0-2.973h33.843a1.486 1.486 0 0 1 0 2.973zM61.553 28.293H27.71a1.486 1.486 0 0 1 0-2.973h33.843a1.486 1.486 0 0 1 0 2.973zM56.902 37.198h-24.54a1.486 1.486 0 0 1 0-2.973h24.54a1.486 1.486 0 0 1 0 2.973z"/>
        </g>
        <g transform="translate(23.413 52.112)">
            <ellipse fill="#FFB6B7" cx="5.74" cy="9.266" rx="5.74" ry="4.571"/>
            <ellipse fill="#FFB6B7" cx="36.851" cy="9.266" rx="5.74" ry="4.571"/>
            <path d="M25.923 5.754c0-2.86-2.072-3.129-4.628-3.129-2.555 0-4.627.269-4.627 3.129s2.072 5.178 4.627 5.178c2.556 0 4.628-2.319 4.628-5.178z" fill="#52979A"/>
            <g fill="#52979A">
                <path d="M6.7 5.273A1.465 1.465 0 0 1 5.233 3.81V1.465a1.465 1.465 0 1 1 2.93 0v2.344c0 .809-.656 1.464-1.465 1.464zM35.891 5.273c-.809 0-1.464-.655-1.464-1.464V1.465a1.465 1.465 0 1 1 2.93 0v2.344c0 .809-.656 1.464-1.466 1.464z"/>
            </g>
        </g>
    </g>
</svg>
