<svg width="40" height="40" xmlns="http://www.w3.org/2000/svg">
    <g fill="none" fill-rule="evenodd">
        <path d="M0 0h40v40H0z"/>
        <path d="M33.333 8H6.667A2.67 2.67 0 0 0 4 10.667v18.666A2.67 2.67 0 0 0 6.667 32h26.666A2.67 2.67 0 0 0 36 29.333V10.667A2.67 2.67 0 0 0 33.333 8zM6.667 9.333h26.666c.099 0 .185.036.277.056-2.308 2.113-9.964 9.117-12.642 11.53-.21.19-.548.414-.968.414-.42 0-.758-.225-.968-.414-2.679-2.414-10.334-9.417-12.643-11.53.093-.02.18-.056.278-.056zm-1.334 20V10.667c0-.13.04-.25.075-.369 1.767 1.617 7.108 6.504 10.572 9.653-3.452 2.966-8.795 8.031-10.576 9.73-.032-.114-.07-.224-.07-.348zm28 1.334H6.667c-.107 0-.201-.037-.3-.061 1.84-1.755 7.216-6.85 10.608-9.75l1.164 1.053c.55.496 1.193.758 1.861.758.668 0 1.311-.262 1.86-.758.319-.286.723-.652 1.165-1.054 3.392 2.901 8.768 7.996 10.609 9.75-.1.025-.194.062-.3.062zm1.334-1.334c0 .123-.04.234-.07.348-1.782-1.7-7.125-6.764-10.577-9.73 3.464-3.149 8.804-8.035 10.572-9.653.035.12.075.238.075.369v18.666z" fill="#14C1C2" fill-rule="nonzero"/>
    </g>
</svg>
