<svg width="50" height="50" viewBox="0 0 50 50" xmlns="http://www.w3.org/2000/svg" xmlns:xlink="http://www.w3.org/1999/xlink">
    <defs>
        <filter x="-22.5%" y="-15%" width="145%" height="145%" filterUnits="objectBoundingBox" id="a">
            <feOffset dy="3" in="SourceAlpha" result="shadowOffsetOuter1"/>
            <feGaussianBlur stdDeviation="2.5" in="shadowOffsetOuter1" result="shadowBlurOuter1"/>
            <feColorMatrix values="0 0 0 0 0.321568627 0 0 0 0 0.592156863 0 0 0 0 0.603921569 0 0 0 0.2 0" in="shadowBlurOuter1"/>
        </filter>
        <rect id="b" x="0" y="0" width="40" height="40" rx="20"/>
    </defs>
    <g fill="none" fill-rule="evenodd">
        <g transform="translate(5 2)">
            <use fill="#000" filter="url(#a)" xlink:href="#b"/>
            <use fill="#FFF" xlink:href="#b"/>
        </g>
        <g transform="translate(14 17.5)">
            <path d="M21.704.296v12.578a3.485 3.485 0 0 1-3.486 3.485H3.236a2.94 2.94 0 0 1-2.94-2.94V.296h21.408z"/>
            <rect fill="#00C8C6" x="3.667" y="3.667" width="3.667" height="1.375" rx=".688"/>
            <rect fill="#00C8C6" x="3.667" y="7.333" width="3.667" height="1.375" rx=".688"/>
            <rect fill="#00C8C6" x="3.667" y="11" width="3.667" height="1.375" rx=".688"/>
            <rect fill="#00C8C6" x="9.167" y="3.667" width="3.667" height="1.375" rx=".688"/>
            <rect fill="#00C8C6" x="9.167" y="7.333" width="3.667" height="1.375" rx=".688"/>
            <rect fill="#00C8C6" x="9.167" y="11" width="3.667" height="1.375" rx=".688"/>
            <rect fill="#00C8C6" x="14.667" y="3.667" width="3.667" height="1.375" rx=".688"/>
            <rect fill="#00C8C6" x="14.667" y="7.333" width="3.667" height="1.375" rx=".688"/>
            <path d="M18.218 16.655H3.236A3.24 3.24 0 0 1 0 13.42V.296C0 .133.133 0 .296 0h21.408c.163 0 .296.133.296.296v12.578a3.786 3.786 0 0 1-3.782 3.781zM.592.592V13.42a2.647 2.647 0 0 0 2.644 2.644h14.982c1.759 0 3.19-1.43 3.19-3.19V.594H.592z" stroke="#00C8C6" stroke-width=".5" fill="#00C4C4" fill-rule="nonzero"/>
        </g>
        <g fill-rule="nonzero">
            <path d="M32.764 12.451H17.236a2.94 2.94 0 0 0-2.94 2.94v2.405h21.408V15.39a2.94 2.94 0 0 0-2.94-2.94z" fill="#E7F8F8"/>
            <path d="M35.704 18.092H14.296a.296.296 0 0 1-.296-.296V15.39a3.24 3.24 0 0 1 3.236-3.236h15.528A3.24 3.24 0 0 1 36 15.391v2.405a.296.296 0 0 1-.296.296zM14.592 17.5h20.816v-2.11a2.647 2.647 0 0 0-2.644-2.643H17.236a2.647 2.647 0 0 0-2.644 2.644V17.5z" stroke="#00C8C6" stroke-width=".5" fill="#00C4C4"/>
        </g>
        <g fill-rule="nonzero">
            <path d="M18.812 14.33a.895.895 0 0 1-.895-.896v-2.243a.895.895 0 1 1 1.79 0v2.243c0 .495-.4.895-.895.895z" fill="#E7F8F8"/>
            <path d="M18.812 14.625a1.192 1.192 0 0 1-1.19-1.19V11.19c0-.657.533-1.191 1.19-1.191.657 0 1.191.534 1.191 1.191v2.243c0 .657-.534 1.191-1.19 1.191zm0-4.033a.6.6 0 0 0-.599.599v2.243a.6.6 0 0 0 1.198 0v-2.243a.6.6 0 0 0-.599-.599z" stroke="#00C8C6" stroke-width=".5" fill="#00C4C4"/>
            <g>
                <path d="M31.188 14.33a.895.895 0 0 1-.895-.896v-2.243a.895.895 0 1 1 1.79 0v2.243c0 .495-.401.895-.895.895z" fill="#E7F8F8"/>
                <path d="M31.188 14.625a1.192 1.192 0 0 1-1.191-1.19V11.19c0-.657.534-1.191 1.19-1.191.658 0 1.192.534 1.192 1.191v2.243c0 .657-.534 1.191-1.191 1.191zm0-4.033a.6.6 0 0 0-.599.599v2.243a.6.6 0 0 0 1.198 0v-2.243a.6.6 0 0 0-.6-.599z" stroke="#00C8C6" stroke-width=".5" fill="#00C4C4"/>
            </g>
        </g>
    </g>
</svg>
