<svg width="40" height="40" xmlns="http://www.w3.org/2000/svg">
    <g fill="none" fill-rule="evenodd">
        <path d="M0 0h40v40H0z"/>
        <g fill-rule="nonzero">
            <path d="M34.367 15.666c.004-.018 0 .03.004.01l-.022-.072a14.926 14.926 0 0 0-3.743-6.21A14.902 14.902 0 0 0 20 5c-4.007 0-7.774 1.56-10.607 4.393A14.902 14.902 0 0 0 5 20c0 4.007 1.56 7.774 4.393 10.607A14.902 14.902 0 0 0 20 35c4.007 0 7.773-1.56 10.607-4.393A14.902 14.902 0 0 0 35 20c0-1.49-.216-2.946-.633-4.334z" stroke="#00C4C4"/>
            <path d="M25.022 9c1.058.578 2.046 1.3 2.937 2.154-.083.232-.224.487-.444.487a.29.29 0 0 1-.01 0c-.189-.007-.407-.079-.638-.155-.35-.115-.748-.245-1.199-.209-.442.036-.82.222-1.154.387-.313.154-.584.287-.777.239-.184-.046-.377-.278-.575-.532A1.344 1.344 0 0 1 23 11.13a1.74 1.74 0 0 1 .097-.135c.249-.322.67-.734 1.076-1.133.293-.288.592-.582.849-.862zM22.012 8.17c-.073.465-.274 1.078-.457 1.304-.201.249-.557.364-.793.256-.239-.108-.427-.448-.505-.908A3.633 3.633 0 0 0 20 8c.68.008 1.352.065 2.012.17zM11.387 11.447A13.68 13.68 0 0 1 17.134 8c.26.853.575 1.652.884 2.407.235.579.503 1.234.443 1.827-.024.227-.081.518-.225.612-.125.082-.376.103-.642.125-.438.036-.983.082-1.48.43-.106.075-.204.152-.3.226-.204.16-.397.31-.577.361-.178.05-.408.024-.674-.006a5.868 5.868 0 0 0-.477-.041c-.531-.02-1.74.235-2.267.923-.26.34-.335.75-.21 1.157.091.3.288.51.469.676.844.774 2.002 1.322 3.178 1.504.168.026.33.046.488.065.862.106 1.29.182 1.617.77.08.146.146.32.215.503a5 5 0 0 0 .283.65c.356.653.957 1.036 1.567 1.002.456-.026.793-.264 1.063-.455.125-.088.243-.171.343-.213.271-.113.685-.013 1.106.268.29.193.663.511.803.936.105.319.033.688-.172.86l-1.837 1.57c-.591.505-1.224 1.118-1.245 2.008-.007.281.051.552.102.79.036.167.096.446.064.52-.034.029-.191.068-.285.09-.166.041-.354.087-.545.184-.925.467-1.012 1.574-1.069 2.307-.041.531-.239.978-.44.997-.163.015-.394-.267-.474-.58a4.66 4.66 0 0 1-.098-.64c-.035-.331-.076-.706-.209-1.074-.17-.473-.468-.864-.73-1.209-.259-.338-.503-.658-.581-.991-.06-.25-.035-.549-.01-.866.032-.403.068-.861-.06-1.327-.182-.662-.633-1.135-1.03-1.553-.262-.274-.509-.533-.655-.812-.177-.338-.155-.691-.13-1.1.024-.388.052-.828-.103-1.28-.154-.452-.519-.713-.789-.907a15.453 15.453 0 0 1-2.204-1.918c-.359-.378-.71-.79-.845-1.247l-.08-.28c-.085-.314-.136-.426-.316-.626a13.803 13.803 0 0 1 2.387-3.196zM31.406 25.39a1.587 1.587 0 0 1-1.021-.312c-.632-.456-.595-1.005-.469-2.015.064-.508.13-1.033.06-1.584-.105-.843-.38-1.446-.842-1.846-.545-.47-1.222-.557-1.818-.633-.124-.016-.24-.03-.353-.048-.516-.082-1.02-.245-1.555-.418-.314-.102-.638-.207-.845-.387-.255-.221-.248-1.273.015-2.163.197-.67.718-1.46 1.54-1.485.387-.012.743.034 1.12.083.69.089 1.405.181 2.282-.094.182-.057.364-.102.539-.144.315-.077.681-.167.991-.354.464.945.824 1.949 1.066 3 .657 2.845.4 5.759-.71 8.4z" stroke="#14C1C2" fill="#E7F8F8"/>
        </g>
    </g>
</svg>
