<svg width="100" height="100" xmlns="http://www.w3.org/2000/svg">
    <g fill="none" fill-rule="evenodd">
        <circle fill="#E7F8F8" cx="50" cy="50" r="50"/>
        <g fill="#14C1C2" fill-rule="nonzero">
            <path d="M46.511 48.114c6.383 0 11.557-5.174 11.557-11.557S52.894 25 46.511 25s-11.557 5.174-11.557 11.557c.006 6.38 5.177 11.55 11.557 11.557zm0-20.927a9.37 9.37 0 0 1 9.37 9.37 9.37 9.37 0 0 1-9.37 9.37 9.37 9.37 0 0 1-9.37-9.37 9.38 9.38 0 0 1 9.37-9.37zM46.5 52.903h.033a16.045 16.045 0 0 1 11.196 4.472l1.52-1.575a18.242 18.242 0 0 0-12.716-5.084H46.5c-5.007.01-9.654 1.957-13.098 5.5-3.5 3.575-5.413 8.463-5.402 13.766.002.29.116.568.317.776.206.205.486.32.776.317l29.084-.055v-2.187l-27.957.055c.23-4.297 1.891-8.222 4.745-11.141 3.029-3.116 7.129-4.833 11.535-4.844zM71.167 61.88h-3.335v-3.335a1.094 1.094 0 0 0-2.187 0v3.334H62.31a1.094 1.094 0 0 0 0 2.187h3.335v3.335a1.093 1.093 0 1 0 2.187 0v-3.335h3.335a1.093 1.093 0 1 0 0-2.187z"/>
            <path d="M66.739 50.945c-6.643 0-12.028 5.386-12.028 12.028C54.711 69.616 60.096 75 66.74 75c6.642 0 12.027-5.384 12.027-12.027a11.966 11.966 0 0 0-12.027-12.028zm0 21.868c-5.435 0-9.84-4.405-9.84-9.84s4.405-9.84 9.84-9.84 9.84 4.405 9.84 9.84-4.405 9.84-9.84 9.84z"/>
        </g>
    </g>
</svg>
