<svg width="40" height="40" xmlns="http://www.w3.org/2000/svg">
    <g fill="none" fill-rule="evenodd">
        <path d="M0 0h40v40H0z"/>
        <path d="m11.201 5.651.18.012c.66.07 1.29.426 1.682 1.044l3.212 4.464c.297.473.411.987.356 1.485-.054.5-.278.982-.659 1.363l-2.594 2.595c-.13 1.045.285 2.64 1.844 4.685 1.842 2.42 4.306 4.248 7.322 5.424l3.386-2.821a2.277 2.277 0 0 1 1.382-.679c.488-.053.992.053 1.437.326l4.51 3.827a2.27 2.27 0 0 1 1.047 1.694 2.268 2.268 0 0 1-.656 1.843l-1.635 1.635c-1.05 1.05-2.301 1.583-3.64 1.746-1.622.197-3.368-.139-5.056-.756-3.29-1.202-6.872-3.647-10.096-6.871-3.15-3.15-5.55-6.638-6.746-9.83-.672-1.794-.94-3.423-.784-4.848.147-1.357.684-2.521 1.613-3.45l2.22-2.221a2.268 2.268 0 0 1 1.855-.655z" fill-rule="nonzero" stroke="#14C1C2" stroke-width="1.3"/>
        <path d="M20.19 12.136a8.03 8.03 0 0 1 4.37 2.267 8.071 8.071 0 0 1 2.267 4.369c.07.418.43.709.842.709a.856.856 0 0 0 .848-1 9.766 9.766 0 0 0-2.742-5.287 9.766 9.766 0 0 0-5.287-2.742.86.86 0 0 0-.987.696.846.846 0 0 0 .69.988zM33.943 18.234a16.066 16.066 0 0 0-4.514-8.706 16.066 16.066 0 0 0-8.706-4.515.852.852 0 0 0-.982.697.859.859 0 0 0 .703.987c2.95.5 5.642 1.9 7.782 4.034a14.344 14.344 0 0 1 4.033 7.781c.07.418.43.71.842.71.05 0 .095-.007.146-.013a.839.839 0 0 0 .696-.975z" fill="#14C1C2" fill-rule="nonzero"/>
    </g>
</svg>
