<svg width="101" height="100" viewBox="0 0 101 100" xmlns="http://www.w3.org/2000/svg">
    <g fill="none" fill-rule="evenodd">
        <path d="M26.838 61.054a1.24 1.24 0 0 1-1.241 1.242 1.244 1.244 0 0 1-1.244-1.242c0-.687.559-1.244 1.244-1.244.688 0 1.241.557 1.241 1.244M31.81 61.054a1.243 1.243 0 1 1-2.486-.002 1.243 1.243 0 0 1 2.485.002M36.78 61.054a1.243 1.243 0 1 1-2.486-.002 1.243 1.243 0 0 1 2.486.002" fill="#FFFFFE"/>
        <path d="M30.828 10.395c-5.484 0-9.949 4.93-9.949 10.993v21.516c0 6.06 4.465 10.992 9.949 10.992h15.209c5.486 0 9.951-4.932 9.951-10.992V21.388c0-6.062-4.465-10.993-9.951-10.993H30.828m-18.816 32.51V21.387C12.012 9.923 20.454.597 30.828.597h15.209c10.376 0 18.818 9.326 18.818 20.79v21.517c0 11.463-8.442 20.789-18.818 20.789H30.828c-10.374 0-18.816-9.326-18.816-20.789" fill="#14C1C2"/>
        <path d="M30.828 10.992c-5.157 0-9.352 4.663-9.352 10.396v21.516c0 5.733 4.195 10.396 9.352 10.396h15.209c5.157 0 9.352-4.663 9.352-10.396V21.388c0-5.733-4.195-10.396-9.352-10.396H30.828m15.209 43.501H30.828c-5.814 0-10.546-5.2-10.546-11.589V21.388c0-6.392 4.732-11.59 10.546-11.59h15.209c5.816 0 10.545 5.198 10.545 11.59v21.516c0 6.39-4.73 11.59-10.545 11.59m-15.209-53.3c-10.047 0-18.22 9.058-18.22 20.194v21.516c0 11.133 8.173 20.192 18.22 20.192h15.209c10.046 0 18.221-9.059 18.221-20.192V21.388c0-11.136-8.175-20.194-18.221-20.194H30.828m15.209 63.095H30.828c-10.703 0-19.413-9.593-19.413-21.385V21.388C11.415 9.593 20.125 0 30.828 0h15.209c10.708 0 19.415 9.593 19.415 21.388v21.516c0 11.792-8.707 21.385-19.415 21.385" fill="#FFFFFE"/>
        <path d="M8.953 99.403h58.96a8.952 8.952 0 0 0 8.954-8.953V44.542a8.952 8.952 0 0 0-8.953-8.953H8.954A8.954 8.954 0 0 0 0 44.542V90.45a8.954 8.954 0 0 0 8.953 8.953" fill="#B8ECEC"/>
        <path d="M62.656 93.73H14.211a8.954 8.954 0 0 1-8.954-8.953V53.273a8.952 8.952 0 0 1 8.954-8.953h48.445a8.952 8.952 0 0 1 8.954 8.953v31.504a8.954 8.954 0 0 1-8.954 8.953" fill="#76DADB"/>
        <path d="M98.698 43.22c0 12.15-9.85 22-22 22-12.153 0-22.003-9.85-22.003-22s9.85-22 22.003-22c12.15 0 22 9.85 22 22" stroke="#FFB6B7" stroke-width="4" fill="#FFF"/>
        <path d="M29.46 61.966a8.973 8.973 0 0 1 8.975-8.972 8.972 8.972 0 0 1 8.972 8.972c0 4.047-2.695 7.428-6.377 8.548v11.608h-5.195V70.514c-3.68-1.12-6.375-4.5-6.375-8.548" fill="#FFF"/>
        <path d="M91.154 43.22c0 7.983-6.472 14.456-14.456 14.456-7.987 0-14.46-6.473-14.46-14.457 0-7.984 6.473-14.456 14.46-14.456 7.984 0 14.456 6.472 14.456 14.456" fill="#FFD3D3"/>
        <path d="m74.455 50.217-6.208-5.874a1.064 1.064 0 1 1 1.634-1.362l5.305 4.79 7.896-9.306a1.064 1.064 0 0 1 1.76 1.198l-8.69 10.472a1.067 1.067 0 0 1-.83.464l-.05.001c-.315 0-.615-.14-.817-.383z" stroke="#52979A" stroke-width=".3" fill="#52979A"/>
    </g>
</svg>
