<svg width="153" height="100" viewBox="0 0 153 100" xmlns="http://www.w3.org/2000/svg">
    <g fill="none" fill-rule="evenodd">
        <path fill="#B8ECEC" d="m75.346 32.514 3.108 19.045 7.323-5.2 6.359 10.048L152.072 0l-85.69 20.929z"/>
        <path fill="#14C1C2" d="M75.346 32.514 152.072 0 80.37 37.266l-.201 1.51-.072.527-1.642 12.256zM4.799 98.703c.058.273-.986.645-2.33.827-1.348.184-2.451.104-2.469-.173-.017-.279 1.027-.65 2.332-.827 1.305-.178 2.409-.1 2.467.173M22.05 90.969c.167.215-1.415 1.713-3.716 3.063-2.3 1.358-4.382 2.008-4.485 1.756-.114-.26 1.735-1.303 3.972-2.625 2.244-1.315 4.057-2.42 4.23-2.194M34.54 76.773c.242.126-.571 2.15-2.117 4.326-1.537 2.182-3.166 3.627-3.365 3.443-.211-.192 1.048-1.902 2.544-4.024 1.501-2.119 2.686-3.879 2.938-3.745M39.098 58.54c.268-.04.726 2.134.42 4.81-.288 2.674-1.138 4.7-1.392 4.62-.279-.08.114-2.163.391-4.729.293-2.565.297-4.672.581-4.701M27.58 45.453c-.01-.253 2.297-.399 4.78.872 2.513 1.255 3.642 3.325 3.45 3.423-.263.22-1.64-1.407-3.91-2.527-2.242-1.158-4.35-1.467-4.32-1.768M12.478 54.678c-.253-.065.22-2.296 1.958-4.44 1.745-2.165 3.888-3.007 3.991-2.769.151.256-1.625 1.425-3.207 3.402-1.607 1.97-2.467 3.908-2.742 3.807M15.592 72.627c-.155.157-1.857-1.326-2.974-3.819-1.131-2.48-1.203-4.72-.94-4.746.29-.046.793 2.006 1.858 4.328 1.042 2.335 2.314 4.022 2.056 4.237"/>
        <path d="M32.176 80.985c-.01.267-2.22.354-4.816-.372-2.603-.71-4.446-1.937-4.315-2.17.132-.257 2.098.52 4.586 1.2 2.48.695 4.566 1.053 4.545 1.342M50.587 77.112c.126.24-1.696 1.435-4.208 2.339-2.511.912-4.688 1.125-4.738.858-.056-.279 1.961-.92 4.397-1.807 2.44-.877 4.42-1.646 4.549-1.39M66.043 66.086c.186.205-1.32 1.727-3.369 3.4-2.049 1.673-3.842 2.845-4.004 2.62-.163-.226 1.343-1.748 3.367-3.402 2.024-1.652 3.817-2.825 4.006-2.618M74.62 57.664c-.792 1.114-1.681 1.8-1.89 1.621-.217-.182.312-1.138 1.07-2.203.762-1.06 1.44-1.88 1.69-1.76.251.12-.068 1.233-.87 2.342z" fill="#14C1C2"/>
    </g>
</svg>
